<?xml version="1.0" standalone="no"?>
<!DOCTYPE svg PUBLIC "-//W3C//DTD SVG 20010904//EN"
 "http://www.w3.org/TR/2001/REC-SVG-20010904/DTD/svg10.dtd">
<svg version="1.0" xmlns="http://www.w3.org/2000/svg"
 width="373.000000pt" height="105.000000pt" viewBox="0 0 373.000000 105.000000"
 preserveAspectRatio="xMidYMid meet">

<g transform="translate(0.000000,105.000000) scale(0.100000,-0.100000)"
fill="#000000" stroke="none">
<path d="M623 775 c-7 -20 2 -29 21 -22 9 4 13 13 10 22 -8 19 -23 19 -31 0z"/>
<path d="M156 642 c-9 -14 9 -31 23 -23 7 5 10 14 7 20 -8 13 -23 14 -30 3z"/>
<path d="M870 430 c0 -7 422 -10 1245 -10 823 0 1245 3 1245 10 0 7 -422 10
-1245 10 -823 0 -1245 -3 -1245 -10z"/>
<path d="M33 322 c-8 -5 -9 -13 -3 -22 7 -12 12 -12 22 -2 14 14 -1 35 -19 24z"/>
<path d="M1015 260 c0 -33 4 -60 10 -60 6 0 10 27 10 60 0 33 -4 60 -10 60 -6
0 -10 -27 -10 -60z"/>
<path d="M1300 319 c0 -2 9 -28 19 -56 10 -29 16 -54 13 -57 -3 -3 2 -6 11 -6
14 0 13 6 -5 53 -19 46 -38 80 -38 66z"/>
<path d="M1554 261 c12 -35 24 -55 28 -48 4 6 3 14 -2 17 -5 3 -12 25 -16 48
-4 23 -12 42 -19 42 -9 0 -6 -17 9 -59z"/>
<path d="M1608 302 c-3 -12 -2 -20 3 -17 4 3 13 -9 18 -27 5 -20 9 -25 10 -13
0 11 -6 33 -13 50 -12 29 -13 29 -18 7z"/>
<path d="M1680 309 c0 -5 5 -7 10 -4 6 3 10 8 10 11 0 2 -4 4 -10 4 -5 0 -10
-5 -10 -11z"/>
<path d="M2105 297 c10 -15 15 -38 13 -52 -3 -13 -1 -22 3 -19 17 10 9 61 -13
80 l-21 19 18 -28z"/>
<path d="M2315 260 c0 -33 4 -60 10 -60 6 0 10 27 10 60 1 35 -4 60 -10 60 -6
0 -10 -25 -10 -60z"/>
<path d="M2575 260 c0 -78 12 -78 17 0 2 36 -1 60 -7 60 -6 0 -10 -27 -10 -60z"/>
<path d="M2831 268 c1 -55 5 -50 11 15 2 20 0 37 -4 37 -4 0 -7 -24 -7 -52z"/>
<path d="M3052 308 c-21 -27 -24 -59 -8 -83 9 -14 21 -25 27 -25 6 0 3 7 -5
16 -18 18 -21 56 -6 85 12 21 8 25 -8 7z"/>
<path d="M3325 260 c0 -78 12 -78 17 0 2 36 -1 60 -7 60 -6 0 -10 -27 -10 -60z"/>
<path d="M750 306 c0 -2 8 -10 18 -17 15 -13 16 -12 3 4 -13 16 -21 21 -21 13z"/>
<path d="M2026 294 c-8 -22 -8 -72 2 -77 4 -3 7 17 7 44 0 27 -1 49 -1 49 -1
0 -5 -7 -8 -16z"/>
<path d="M827 210 c3 -11 12 -20 19 -20 8 0 14 9 14 20 0 13 -7 20 -19 20 -14
0 -18 -5 -14 -20z"/>
<path d="M1647 223 c-4 -3 -7 -11 -7 -17 0 -6 5 -5 12 2 6 6 9 14 7 17 -3 3
-9 2 -12 -2z"/>
<path d="M1075 210 c-3 -5 -1 -10 4 -10 6 0 11 5 11 10 0 6 -2 10 -4 10 -3 0
-8 -4 -11 -10z"/>
<path d="M3385 210 c-3 -5 -1 -10 4 -10 6 0 11 5 11 10 0 6 -2 10 -4 10 -3 0
-8 -4 -11 -10z"/>
<path d="M2828 203 c7 -3 16 -2 19 1 4 3 -2 6 -13 5 -11 0 -14 -3 -6 -6z"/>
</g>
</svg>
