<svg width="1040" height="161" viewBox="0 0 1040 161" fill="none" xmlns="http://www.w3.org/2000/svg">
<g clip-path="url(#clip0_46_656)">
<path d="M756.438 1.75918H773.316V4.06857C769.588 4.62842 765.114 8.09251 759.895 14.4608L743.729 34.8255L757.556 52.2509C767.249 64.4977 775.01 71.3909 780.84 72.9305V75.2398H761.115C757.184 70.691 748.541 59.6339 735.188 42.0686V52.1459C735.188 54.5953 735.324 58.2693 735.595 63.168C735.934 68.0667 736.273 71.3209 736.612 72.9305V75.2398H719.226V72.9305C720.242 68.9415 720.751 61.9084 720.751 51.831V25.168C720.751 15.0907 720.242 8.05752 719.226 4.06857V1.75918H736.612V4.06857C736.273 5.67815 735.934 8.93229 735.595 13.831C735.324 18.7297 735.188 22.4387 735.188 24.9581V32.4111L749.829 14.3559C754.235 8.8973 756.438 4.6984 756.438 1.75918Z" fill="url(#paint0_linear_46_656)"/>
<path d="M844.593 23.6984V42.4885C844.593 55.2251 842.322 64.0778 837.781 69.0465C833.307 73.9452 825.749 76.3945 815.107 76.3945C804.466 76.3945 796.772 74.0152 792.028 69.2564C787.283 64.4277 784.911 56.7297 784.911 46.1625V25.378C784.911 14.9507 784.368 7.84758 783.284 4.06857V1.75918H800.772V4.06857C799.823 10.3669 799.348 18.5198 799.348 28.5271V41.4387C799.348 48.5069 799.755 53.5456 800.568 56.5548C801.449 59.564 802.5 61.7334 803.72 63.063C806.499 66.2122 810.736 67.7868 816.429 67.7868C822.191 67.7868 826.461 66.877 829.24 65.0575C831.002 62.3282 832.121 58.5842 832.595 53.8255C833.07 49.0667 833.307 41.0188 833.307 29.6818C833.307 18.2748 832.765 9.73708 831.68 4.06857V1.75918H846.22V3.9636C845.745 5.57318 845.338 8.65237 844.999 13.2012C844.728 17.68 844.593 21.1791 844.593 23.6984Z" fill="url(#paint1_linear_46_656)"/>
<path d="M875.253 1.96912L889.792 1.75918C898.536 1.75918 905.28 3.12382 910.025 5.8531C914.838 8.58238 917.244 13.2012 917.244 19.7095C917.244 26.1478 915.312 31.3264 911.448 35.2454C907.585 39.1643 902.433 41.4387 895.994 42.0686L907.585 56.0299C912.533 61.9783 916.329 66.0723 918.972 68.3117C921.684 70.5511 924.124 72.0207 926.293 72.7205V75.2398H908.5C907.551 73.7702 905.213 70.5861 901.484 65.6874L883.183 42.6984C882.37 42.6984 881.794 42.6634 881.455 42.5934V57.1846C881.455 64.0428 881.997 69.2914 883.082 72.9305V75.2398H864.984V72.9305C866.339 69.2914 867.017 64.3927 867.017 58.2343V20.5492C867.017 13.5511 866.441 8.05752 865.289 4.06857V1.75918C867.187 1.89914 870.508 1.96912 875.253 1.96912ZM902.196 21.494C902.196 16.5953 901.146 13.2362 899.044 11.4166C897.011 9.52713 893.791 8.58238 889.385 8.58238C885.047 8.58238 882.472 8.61737 881.658 8.68736C881.523 10.7868 881.455 19.8844 881.455 35.9802C883.014 36.1901 884.946 36.2951 887.25 36.2951C892.673 36.2951 896.503 35.0704 898.739 32.6211C901.044 30.1017 902.196 26.3927 902.196 21.494Z" fill="url(#paint2_linear_46_656)"/>
<path d="M924.873 12.1514C924.873 9.00227 924.703 5.43321 924.364 1.44426C937.582 1.65421 947.478 1.75918 954.053 1.75918C960.628 1.75918 970.524 1.65421 983.741 1.44426C983.402 5.43321 983.233 9.00227 983.233 12.1514H981.301C973.642 10.3319 967.067 9.31719 961.577 9.10724C961.305 12.6063 961.17 17.8549 961.17 24.8531V52.3559C961.17 61.8734 961.712 68.7316 962.797 72.9305V75.2398H945.309V72.9305C946.258 68.7316 946.732 61.9783 946.732 52.6708V25.273C946.732 18.0649 946.597 12.6763 946.326 9.10724C941.242 9.31719 934.735 10.3319 926.804 12.1514H924.873Z" fill="url(#paint3_linear_46_656)"/>
<path d="M1004.25 23.0686C1006.01 24.6781 1007.94 26.0078 1010.05 27.0575C1012.15 28.0373 1014.01 28.912 1015.64 29.6818C1017.33 30.4516 1018.42 30.9765 1018.89 31.2564C1019.37 31.4664 1020.48 31.9912 1022.25 32.831C1024.08 33.6708 1025.23 34.2306 1025.7 34.5106C1026.18 34.7205 1027.23 35.3153 1028.85 36.2951C1030.48 37.2748 1031.6 38.0796 1032.21 38.7095C1032.82 39.3393 1033.7 40.284 1034.85 41.5437C1036.01 42.7334 1036.82 43.8881 1037.29 45.0078C1038.58 48.157 1039.23 51.3411 1039.23 54.5603C1039.23 61.7684 1036.72 67.227 1031.7 70.936C1026.75 74.645 1019.94 76.4995 1011.27 76.4995C1002.66 76.4995 994.794 74.0502 987.677 69.1514C987.881 64.1128 989.745 59.389 993.269 54.9802C996.523 58.6892 1000.18 61.7334 1004.25 64.1128C1008.32 66.4921 1012.01 67.6818 1015.33 67.6818C1018.72 67.6818 1021.7 66.912 1024.28 65.3724C1025.57 63.6229 1026.21 60.8936 1026.21 57.1846C1026.21 54.3853 1025.43 52.1459 1023.87 50.4664C1022.92 49.5566 1022.11 48.8218 1021.43 48.2619C1020.82 47.6321 1019.7 46.8973 1018.08 46.0575C1016.45 45.1478 1013.13 43.5732 1008.11 41.3338C1003.17 39.0244 999.709 37.2049 997.743 35.8752C992.117 31.9562 989.304 26.7076 989.304 20.1293C989.304 13.4811 991.71 8.54739 996.523 5.32824C1001.4 2.10909 1007.44 0.499512 1014.62 0.499512C1021.81 0.499512 1029.36 2.24905 1037.29 5.74813C1036.48 10.5769 1034.75 15.2656 1032.11 19.8144C1028.65 16.5253 1024.99 13.866 1021.13 11.8365C1017.26 9.73708 1013.77 8.68736 1010.66 8.68736C1007.54 8.68736 1005.06 9.21222 1003.23 10.2619C1002.15 11.5916 1001.61 13.656 1001.61 16.4553C1001.61 19.2546 1002.49 21.459 1004.25 23.0686Z" fill="url(#paint4_linear_46_656)"/>
<path d="M279.378 50.5738C276.799 50.5041 273.235 50.4692 268.687 50.4692C264.138 50.4692 260.472 50.5041 257.689 50.5738C255.449 58.5187 254.125 63.4321 253.718 65.3138C253.311 67.1258 253.107 69.6695 253.107 72.9451V75.2449H236V72.9451C239.53 70.4362 243.909 61.167 249.136 45.1377C254.363 29.1084 257.791 18.5152 259.42 13.3579C261.049 8.13097 262 4.36757 262.271 2.06772L277.953 0.499634C277.953 3.14795 280.193 10.7444 284.673 23.2891C293.023 46.7058 298.827 61.0974 302.086 66.4637C303.647 69.1817 305.412 71.3422 307.381 72.9451V75.2449H285.793V72.9451C285.793 70.018 283.655 62.5609 279.378 50.5738ZM268.076 15.2396C265.835 21.8604 263.018 31.0947 259.624 42.9424H277.24C276.833 41.7577 276.222 39.7714 275.407 36.9837C273.642 30.7811 271.198 23.533 268.076 15.2396Z" fill="url(#paint5_linear_46_656)"/>
<path d="M325.463 75.2449H311.513V72.9451C312.599 68.7635 313.142 60.8534 313.142 49.2148V27.9934C313.142 17.6092 312.701 9.76875 311.818 4.47211V2.17225L327.907 1.02233L363.75 52.6645V25.1708C363.75 21.6165 363.513 17.7137 363.037 13.4625C362.562 9.14151 362.019 6.10989 361.408 4.36757V2.06772H375.766V4.36757C375.358 6.10989 374.985 9.52482 374.646 14.6124C374.306 19.6303 374.136 24.1254 374.136 28.0979V52.9782C374.136 57.0203 374.34 61.4458 374.747 66.2546C375.155 71.0634 375.494 73.9905 375.766 75.0359L362.426 76.3949L323.528 20.4666V52.2464C323.528 61.0277 324.173 67.9272 325.463 72.9451V75.2449Z" fill="url(#paint6_linear_46_656)"/>
<path d="M383.014 12.4171C383.014 9.2809 382.844 5.72658 382.505 1.7541C395.742 1.96318 405.653 2.06772 412.238 2.06772C418.823 2.06772 428.734 1.96318 441.972 1.7541C441.632 5.72658 441.463 9.2809 441.463 12.4171H439.528C431.857 10.6051 425.272 9.59452 419.773 9.38544C419.502 12.8701 419.366 18.097 419.366 25.0663V52.4555C419.366 61.9337 419.909 68.7635 420.995 72.9451V75.2449H403.481V72.9451C404.431 68.7635 404.907 62.0382 404.907 52.7691V25.4844C404.907 18.3061 404.771 12.9398 404.499 9.38544C399.408 9.59452 392.891 10.6051 384.948 12.4171H383.014Z" fill="url(#paint7_linear_46_656)"/>
<path d="M478.56 76.4994C467.699 76.4994 459.009 72.9799 452.492 65.941C446.043 58.902 442.819 50.0162 442.819 39.2836C442.819 28.4812 446.451 19.3515 453.714 11.8944C460.978 4.36757 470.244 0.604171 481.513 0.604171C492.782 0.604171 501.471 4.0888 507.581 11.0581C513.691 18.0273 516.745 26.5995 516.745 36.7746C516.745 48.2739 513.08 57.787 505.748 65.3138C498.484 72.7709 489.422 76.4994 478.56 76.4994ZM501.37 39.5972C501.37 33.8127 500.691 28.76 499.333 24.439C498.043 20.1181 495.633 16.5289 492.103 13.6715C488.573 10.7444 484.025 9.2809 478.458 9.2809C475.947 9.2809 473.401 9.59452 470.821 10.2218C468.242 10.7793 466.375 11.4065 465.221 12.1035C463.184 14.2639 461.487 17.5743 460.13 22.0346C458.84 26.495 458.195 31.1992 458.195 36.1474C458.195 41.0259 458.602 45.2423 459.417 48.7966C460.299 52.2812 461.623 55.5219 463.388 58.5187C465.221 61.4458 467.733 63.7805 470.923 65.5228C474.114 67.1954 477.949 68.0318 482.43 68.0318C486.978 68.0318 490.949 67.0561 494.343 65.1047C499.027 60.505 501.37 52.0025 501.37 39.5972Z" fill="url(#paint8_linear_46_656)"/>
<path d="M543.039 75.2449H529.089V72.9451C530.175 68.7635 530.718 60.8534 530.718 49.2148V27.9934C530.718 17.6092 530.277 9.76875 529.394 4.47211V2.17225L545.483 1.02233L581.326 52.6645V25.1708C581.326 21.6165 581.089 17.7137 580.613 13.4625C580.138 9.14151 579.595 6.10989 578.984 4.36757V2.06772H593.342V4.36757C592.934 6.10989 592.561 9.52482 592.222 14.6124C591.882 19.6303 591.712 24.1254 591.712 28.0979V52.9782C591.712 57.0203 591.916 61.4458 592.323 66.2546C592.731 71.0634 593.07 73.9905 593.342 75.0359L580.002 76.3949L541.104 20.4666V52.2464C541.104 61.0277 541.749 67.9272 543.039 72.9451V75.2449Z" fill="url(#paint9_linear_46_656)"/>
<path d="M628.694 26.2162V51.201C628.694 61.5155 629.237 68.7635 630.323 72.9451V75.2449H612.605V72.9451C613.691 68.7635 614.235 61.5155 614.235 51.201V25.1708C614.235 15.4835 613.691 8.54913 612.605 4.36757V2.06772H630.323V4.36757C629.848 5.9705 629.441 9.35059 629.101 14.5078C628.83 19.5954 628.694 23.4982 628.694 26.2162Z" fill="url(#paint10_linear_46_656)"/>
<path d="M668.371 26.2162V51.201C668.371 61.5155 668.914 68.7635 670 72.9451V75.2449H652.282V72.9451C653.368 68.7635 653.911 61.5155 653.911 51.201V25.1708C653.911 15.4835 653.368 8.54913 652.282 4.36757V2.06772H670V4.36757C669.525 5.9705 669.117 9.35059 668.778 14.5078C668.507 19.5954 668.371 23.4982 668.371 26.2162Z" fill="url(#paint11_linear_46_656)"/>
<line x1="236" y1="106.5" x2="992.01" y2="106.5" stroke="#979595" stroke-width="4"/>
<path d="M36.0026 160.5H0V158.215C5.12231 156.691 9.55374 154.239 14.9596 147.647C21.7419 139.376 38.3388 106.429 49.6913 83.8926L50.2007 82.8813L90.9687 1.52966L107.375 17.0277L36.0026 160.5Z" fill="url(#paint12_linear_46_656)"/>
<path d="M92.9582 93.7868H67.7823L60.5231 104.862H92.9582V93.7868Z" fill="url(#paint13_linear_46_656)"/>
<path d="M208 160.461H171.997C166.875 153.91 147.922 127.554 115.14 81.3942V112.472C115.14 118.109 115.432 126.412 116.018 137.38C116.75 148.197 117.554 155.357 118.433 158.861V160.461H89.2354V158.861C91.4306 150.025 92.5283 134.562 92.5283 112.472V48.7164C92.5283 26.4742 91.4306 10.9352 89.2354 2.09925V0.499634H118.433V2.09925C117.554 5.60316 116.75 12.8395 116.018 23.8082C115.432 34.777 115.14 43.0797 115.14 48.7164V76.1383L150.923 27.9215C160.289 15.277 164.972 6.13635 164.972 0.499634H192.633V2.78479C186.486 3.8512 177.925 11.8492 166.948 26.7789L132.921 72.4821L161.46 110.873C172.875 126.107 182.169 137.457 189.34 144.922C196.658 152.234 202.878 156.652 208 158.175V160.461Z" fill="url(#paint14_linear_46_656)"/>
<path d="M216 0.245972L216 160.5" stroke="#979595" stroke-width="4"/>
<path d="M236 159.9V158.64C238.175 158.64 239.444 158.24 239.806 157.441V127.27C239.444 126.47 238.175 126.071 236 126.071V124.811H249.171V126.071C246.996 126.071 245.727 126.47 245.365 127.27V157.86H259.14C260.147 157.421 261.054 156.161 261.859 154.082H263.067L261.617 159.9H236Z" fill="#979595"/>
<path d="M334.429 159.9V158.64C336.282 158.64 337.45 158.4 337.933 157.92L334.55 148.743H322.949L319.808 157.561C320.21 158.28 321.459 158.64 323.554 158.64V159.9H313.645V158.64C315.901 158.64 317.169 158.22 317.451 157.381L329.172 124.811H332.073L343.794 157.381C344.076 158.22 345.365 158.64 347.661 158.64V159.9H334.429ZM328.689 132.788L323.674 146.764H333.825L328.689 132.788Z" fill="#979595"/>
<path d="M425.602 124.811V126.071C423.749 126.071 422.581 126.311 422.098 126.79L431.342 151.922L440.223 127.15C439.82 126.43 438.572 126.071 436.477 126.071V124.811H446.386V126.071C444.13 126.071 442.861 126.49 442.579 127.33L430.858 159.9H427.958L420.406 138.966L412.914 159.9H410.014L398.293 127.33C397.97 126.49 396.681 126.071 394.426 126.071V124.811H407.658V126.071C405.805 126.071 404.637 126.311 404.153 126.79L413.397 151.862L419.197 135.608L416.237 127.33C415.955 126.49 414.666 126.071 412.37 126.071V124.811H425.602Z" fill="#979595"/>
<path d="M570.549 141.906C570.549 144.545 570.912 147.084 571.637 149.523C572.402 151.922 573.63 154.022 575.322 155.821C577.054 157.581 579.108 158.46 581.485 158.46C583.861 158.46 585.855 157.621 587.466 155.941C589.118 154.262 590.266 152.302 590.91 150.063C591.595 147.784 591.937 145.384 591.937 142.865C591.937 140.266 591.555 137.747 590.789 135.308C590.024 132.828 588.775 130.709 587.043 128.95C585.352 127.15 583.338 126.251 581.002 126.251C579.189 126.251 577.578 126.73 576.168 127.69C574.799 128.65 573.711 129.929 572.905 131.529C572.14 133.088 571.556 134.748 571.153 136.507C570.751 138.267 570.549 140.066 570.549 141.906ZM564.507 142.385C564.507 137.387 566.078 133.108 569.22 129.549C572.362 125.991 576.369 124.211 581.243 124.211C586.117 124.211 590.125 125.991 593.267 129.549C596.408 133.108 597.979 137.387 597.979 142.385C597.979 147.384 596.388 151.662 593.206 155.221C590.064 158.74 586.077 160.5 581.243 160.5C576.329 160.5 572.301 158.74 569.16 155.221C566.058 151.702 564.507 147.424 564.507 142.385Z" fill="#979595"/>
<path d="M653.431 159.9V158.64C655.606 158.64 656.874 158.24 657.237 157.441V127.27C656.874 126.47 655.606 126.071 653.431 126.071V124.811H677.779V130.629H676.51C676.51 128.47 676.108 127.21 675.302 126.85H662.796V140.646H671.254C672.06 140.286 672.462 139.026 672.462 136.867H673.731V146.464H672.462C672.462 144.305 672.06 143.045 671.254 142.685H662.796V157.441C663.158 158.24 664.427 158.64 666.602 158.64V159.9H653.431Z" fill="#979595"/>
<path d="M732.562 159.9V158.64C734.737 158.64 736.006 158.24 736.369 157.441V127.27C736.006 126.47 734.737 126.071 732.562 126.071V124.811H756.911V130.629H755.642C755.642 128.47 755.24 127.21 754.434 126.85H741.927V140.646H750.386C751.191 140.286 751.594 139.026 751.594 136.867H752.863V146.464H751.594C751.594 144.305 751.191 143.045 750.386 142.685H741.927V157.441C742.29 158.24 743.559 158.64 745.734 158.64V159.9H732.562Z" fill="#979595"/>
<path d="M811.694 159.9V158.64C813.869 158.64 815.138 158.24 815.5 157.441V127.27C815.138 126.47 813.869 126.071 811.694 126.071V124.811H824.865V126.071C822.69 126.071 821.421 126.47 821.059 127.27V157.441C821.421 158.24 822.69 158.64 824.865 158.64V159.9H811.694Z" fill="#979595"/>
<path d="M898.632 126.251C895.168 126.251 892.288 127.67 889.992 130.509C887.696 133.348 886.548 137.027 886.548 141.546C886.548 146.824 887.756 150.963 890.173 153.962C892.59 156.961 895.49 158.46 898.873 158.46C900.887 158.46 902.881 157.781 904.855 156.421C906.828 155.021 908.097 153.542 908.661 151.982L910.111 152.702C909.185 154.901 907.715 156.761 905.701 158.28C903.727 159.76 901.048 160.5 897.665 160.5C892.308 160.5 888.058 158.78 884.917 155.341C881.815 151.862 880.264 147.704 880.264 142.865C880.264 137.267 882.057 132.768 885.642 129.37C889.267 125.931 893.577 124.211 898.571 124.211C899.739 124.211 901.089 124.511 902.619 125.111C904.15 125.711 905.036 126.011 905.278 126.011C905.761 126.011 906.003 125.611 906.003 124.811H907.392L907.996 132.429H906.667C906.385 130.629 905.58 129.15 904.251 127.99C902.962 126.83 901.089 126.251 898.632 126.251Z" fill="#979595"/>
<path d="M964.942 159.9V158.64C967.117 158.64 968.386 158.24 968.749 157.441V127.27C968.386 126.47 967.117 126.071 964.942 126.071V124.811H989.291V130.629H988.022C988.022 128.47 987.62 127.21 986.814 126.85H974.307V140.646H982.766C983.571 140.286 983.974 139.026 983.974 136.867H985.243V146.464H983.974C983.974 144.305 983.571 143.045 982.766 142.685H974.307V157.86H988.083C989.09 157.421 989.996 156.161 990.802 154.082H992.01L990.56 159.9H964.942Z" fill="#979595"/>
<path d="M1009.73 88.8858L1014.12 88.8307C1018.93 88.8307 1021.33 90.587 1021.33 94.0996C1021.33 96.1226 1020.62 97.695 1019.21 98.8169C1017.81 99.9387 1016.01 100.5 1013.81 100.5C1013.05 100.5 1012.25 100.417 1011.41 100.251V104.417C1011.41 105.925 1011.59 107.111 1011.94 107.975V108.141H1008V107.948C1008.35 107.01 1008.53 105.695 1008.53 104.003V93.4376C1008.53 91.5065 1008.38 90.0353 1008.08 89.0238V88.8307L1009.73 88.8858ZM1018.17 94.3755C1018.17 91.6169 1016.83 90.2376 1014.15 90.2376C1012.79 90.2376 1011.89 90.2652 1011.47 90.3203C1011.43 90.8169 1011.41 92.4353 1011.41 95.1755V98.9548C1012.14 99.1571 1012.89 99.2583 1013.67 99.2583C1015.14 99.2583 1016.26 98.8353 1017.03 97.9893C1017.79 97.1249 1018.17 95.9203 1018.17 94.3755Z" fill="#979595"/>
<path d="M1026.92 97.7962C1026.92 100.444 1027.56 102.504 1028.85 103.975C1030.15 105.447 1031.77 106.182 1033.68 106.182C1035.08 106.182 1036.94 105.557 1039.25 104.307L1040 105.438C1039.14 106.063 1038.47 106.513 1037.99 106.789C1037.52 107.065 1036.99 107.35 1036.39 107.644C1035.18 108.215 1033.89 108.5 1032.51 108.5C1030.09 108.5 1028.02 107.608 1026.31 105.824C1024.61 104.04 1023.76 101.649 1023.76 98.6514C1023.76 95.6537 1024.75 93.2169 1026.73 91.341C1028.7 89.4468 1031.15 88.4996 1034.08 88.4996C1036.03 88.4996 1037.87 88.941 1039.58 89.8238C1039.36 90.9824 1038.97 91.9571 1038.41 92.7479C1036.49 91.2215 1034.41 90.4583 1032.17 90.4583C1031.5 90.4583 1030.85 90.5226 1030.22 90.6514C1029.27 91.3502 1028.48 92.2973 1027.84 93.4927C1027.23 94.6881 1026.92 96.1226 1026.92 97.7962Z" fill="#979595"/>
</g>
<defs>
<linearGradient id="paint0_linear_46_656" x1="879.226" y1="76.4995" x2="879.226" y2="0.499512" gradientUnits="userSpaceOnUse">
<stop stop-color="#666666"/>
<stop offset="1" stop-color="#A3A3A3"/>
</linearGradient>
<linearGradient id="paint1_linear_46_656" x1="879.226" y1="76.4995" x2="879.226" y2="0.499512" gradientUnits="userSpaceOnUse">
<stop stop-color="#666666"/>
<stop offset="1" stop-color="#A3A3A3"/>
</linearGradient>
<linearGradient id="paint2_linear_46_656" x1="879.226" y1="76.4995" x2="879.226" y2="0.499512" gradientUnits="userSpaceOnUse">
<stop stop-color="#666666"/>
<stop offset="1" stop-color="#A3A3A3"/>
</linearGradient>
<linearGradient id="paint3_linear_46_656" x1="879.226" y1="76.4995" x2="879.226" y2="0.499512" gradientUnits="userSpaceOnUse">
<stop stop-color="#666666"/>
<stop offset="1" stop-color="#A3A3A3"/>
</linearGradient>
<linearGradient id="paint4_linear_46_656" x1="879.226" y1="76.4995" x2="879.226" y2="0.499512" gradientUnits="userSpaceOnUse">
<stop stop-color="#666666"/>
<stop offset="1" stop-color="#A3A3A3"/>
</linearGradient>
<linearGradient id="paint5_linear_46_656" x1="453" y1="0.499634" x2="453" y2="76.4994" gradientUnits="userSpaceOnUse">
<stop stop-color="#FF9430"/>
<stop offset="1" stop-color="#FF5C00"/>
</linearGradient>
<linearGradient id="paint6_linear_46_656" x1="453" y1="0.499634" x2="453" y2="76.4994" gradientUnits="userSpaceOnUse">
<stop stop-color="#FF9430"/>
<stop offset="1" stop-color="#FF5C00"/>
</linearGradient>
<linearGradient id="paint7_linear_46_656" x1="453" y1="0.499634" x2="453" y2="76.4994" gradientUnits="userSpaceOnUse">
<stop stop-color="#FF9430"/>
<stop offset="1" stop-color="#FF5C00"/>
</linearGradient>
<linearGradient id="paint8_linear_46_656" x1="453" y1="0.499634" x2="453" y2="76.4994" gradientUnits="userSpaceOnUse">
<stop stop-color="#FF9430"/>
<stop offset="1" stop-color="#FF5C00"/>
</linearGradient>
<linearGradient id="paint9_linear_46_656" x1="453" y1="0.499634" x2="453" y2="76.4994" gradientUnits="userSpaceOnUse">
<stop stop-color="#FF9430"/>
<stop offset="1" stop-color="#FF5C00"/>
</linearGradient>
<linearGradient id="paint10_linear_46_656" x1="453" y1="0.499634" x2="453" y2="76.4994" gradientUnits="userSpaceOnUse">
<stop stop-color="#FF9430"/>
<stop offset="1" stop-color="#FF5C00"/>
</linearGradient>
<linearGradient id="paint11_linear_46_656" x1="453" y1="0.499634" x2="453" y2="76.4994" gradientUnits="userSpaceOnUse">
<stop stop-color="#FF9430"/>
<stop offset="1" stop-color="#FF5C00"/>
</linearGradient>
<linearGradient id="paint12_linear_46_656" x1="53.6873" y1="1.52966" x2="53.6873" y2="160.5" gradientUnits="userSpaceOnUse">
<stop stop-color="#FF9430"/>
<stop offset="1" stop-color="#FF5C00"/>
</linearGradient>
<linearGradient id="paint13_linear_46_656" x1="53.6873" y1="1.52966" x2="53.6873" y2="160.5" gradientUnits="userSpaceOnUse">
<stop stop-color="#FF9430"/>
<stop offset="1" stop-color="#FF5C00"/>
</linearGradient>
<linearGradient id="paint14_linear_46_656" x1="148.618" y1="160.461" x2="148.618" y2="0.499634" gradientUnits="userSpaceOnUse">
<stop stop-color="#666666"/>
<stop offset="1" stop-color="#A3A3A3"/>
</linearGradient>
<clipPath id="clip0_46_656">
<rect width="1040" height="160" fill="white" transform="translate(0 0.499634)"/>
</clipPath>
</defs>
</svg>
