<svg width="1032" height="159" viewBox="0 0 1032 159" fill="none" xmlns="http://www.w3.org/2000/svg">
<g clip-path="url(#clip0_45_484)">
<path d="M750.559 1.38515H767.302V3.67618C763.604 4.23159 759.166 7.66814 753.988 13.9858L737.951 34.1886L751.668 51.4755C761.284 63.6249 768.983 70.4633 774.766 71.9907V74.2817H755.198C751.298 69.769 742.725 58.7999 729.478 41.3741V51.3713C729.478 53.8012 729.612 57.4461 729.881 62.3058C730.218 67.1656 730.554 70.3939 730.89 71.9907V74.2817H713.642V71.9907C714.651 68.0334 715.155 61.0562 715.155 51.0589V24.6079C715.155 14.6107 714.651 7.63342 713.642 3.67618V1.38515H730.89V3.67618C730.554 5.27297 730.218 8.50124 729.881 13.361C729.612 18.2208 729.478 21.9003 729.478 24.3996V31.7934L744.002 13.8817C748.373 8.46653 750.559 4.30101 750.559 1.38515Z" fill="url(#paint0_linear_45_484)"/>
<path d="M838.013 23.15V41.7907C838.013 54.4261 835.76 63.2084 831.255 68.1376C826.817 72.9973 819.319 75.4272 808.762 75.4272C798.205 75.4272 790.572 73.0667 785.865 68.3458C781.158 63.5555 778.805 55.9187 778.805 45.4355V24.8162C778.805 14.4718 778.267 7.42515 777.191 3.67618V1.38515H794.54V3.67618C793.598 9.92446 793.128 18.0125 793.128 27.9403V40.7493C793.128 47.7612 793.531 52.7598 794.338 55.7451C795.212 58.7304 796.254 60.8826 797.465 62.2017C800.222 65.3258 804.425 66.8879 810.073 66.8879C815.789 66.8879 820.025 65.9854 822.782 64.1803C824.53 61.4727 825.64 57.7585 826.111 53.0376C826.581 48.3166 826.817 40.3327 826.817 29.0858C826.817 17.7695 826.279 9.29963 825.203 3.67618V1.38515H839.626V3.57205C839.156 5.16883 838.752 8.22354 838.416 12.7362C838.147 17.1794 838.013 20.6507 838.013 23.15Z" fill="url(#paint1_linear_45_484)"/>
<path d="M868.429 1.59343L882.853 1.38515C891.527 1.38515 898.218 2.73894 902.925 5.44653C907.699 8.15411 910.086 12.7362 910.086 19.1927C910.086 25.5799 908.17 30.7173 904.337 34.6051C900.504 38.493 895.394 40.7493 889.005 41.3741L900.504 55.2244C905.413 61.1256 909.178 65.187 911.801 67.4086C914.491 69.6302 916.911 71.0881 919.063 71.7824V74.2817H901.412C900.47 72.8238 898.151 69.6649 894.452 64.8051L876.296 41.9989C875.49 41.9989 874.918 41.9642 874.582 41.8948V56.37C874.582 63.1736 875.12 68.3805 876.196 71.9907V74.2817H858.242V71.9907C859.586 68.3805 860.259 63.5208 860.259 57.4113V20.0258C860.259 13.0833 859.687 7.63342 858.544 3.67618V1.38515C860.427 1.524 863.722 1.59343 868.429 1.59343ZM895.158 20.9631C895.158 16.1033 894.116 12.7709 892.031 10.9658C890.014 9.09135 886.82 8.15411 882.449 8.15411C878.146 8.15411 875.59 8.18883 874.783 8.25826C874.649 10.341 874.582 19.3663 874.582 35.3341C876.128 35.5424 878.045 35.6465 880.331 35.6465C885.71 35.6465 889.51 34.4316 891.729 32.0017C894.015 29.5024 895.158 25.8228 895.158 20.9631Z" fill="url(#paint2_linear_45_484)"/>
<path d="M917.654 11.6948C917.654 8.57067 917.486 5.02998 917.15 1.07274C930.262 1.28101 940.08 1.38515 946.603 1.38515C953.125 1.38515 962.943 1.28101 976.055 1.07274C975.719 5.02998 975.551 8.57067 975.551 11.6948H973.634C966.036 9.88975 959.513 8.88308 954.067 8.6748C953.798 12.1461 953.663 17.353 953.663 24.2955V51.5796C953.663 61.0215 954.201 67.8251 955.277 71.9907V74.2817H937.928V71.9907C938.87 67.8251 939.34 61.1256 939.34 51.892V24.712C939.34 17.5612 939.206 12.2155 938.937 8.6748C933.894 8.88308 927.438 9.88975 919.571 11.6948H917.654Z" fill="url(#paint3_linear_45_484)"/>
<path d="M996.401 22.5251C998.149 24.1219 1000.07 25.441 1002.15 26.4824C1004.23 27.4543 1006.08 28.3222 1007.7 29.0858C1009.38 29.8495 1010.45 30.3702 1010.93 30.6479C1011.4 30.8562 1012.51 31.3769 1014.25 32.21C1016.07 33.0431 1017.21 33.5985 1017.68 33.8762C1018.15 34.0845 1019.2 34.6746 1020.81 35.6465C1022.42 36.6185 1023.53 37.4169 1024.14 38.0417C1024.74 38.6665 1025.62 39.6038 1026.76 40.8534C1027.9 42.0336 1028.71 43.1792 1029.18 44.29C1030.46 47.4141 1031.1 50.573 1031.1 53.7665C1031.1 60.9173 1028.61 66.3325 1023.63 70.012C1018.73 73.6916 1011.97 75.5313 1003.36 75.5313C994.82 75.5313 987.02 73.1015 979.96 68.2417C980.161 63.2431 982.011 58.5569 985.507 54.1831C988.735 57.8626 992.366 60.8826 996.401 63.2431C1000.44 65.6035 1004.1 66.7838 1007.39 66.7838C1010.76 66.7838 1013.72 66.0201 1016.27 64.4927C1017.55 62.7571 1018.19 60.0495 1018.19 56.37C1018.19 53.593 1017.41 51.3713 1015.87 49.7051C1014.93 48.8026 1014.12 48.0736 1013.45 47.5182C1012.84 46.8934 1011.73 46.1645 1010.12 45.3313C1008.5 44.4288 1005.21 42.8667 1000.23 40.6451C995.325 38.3541 991.895 36.5491 989.945 35.23C984.364 31.3422 981.574 26.1353 981.574 19.6093C981.574 13.0139 983.961 8.1194 988.735 4.92584C993.576 1.73228 999.561 0.135498 1006.69 0.135498C1013.82 0.135498 1021.31 1.87113 1029.18 5.34239C1028.37 10.1327 1026.66 14.7842 1024.04 19.2969C1020.61 16.0339 1016.98 13.3957 1013.14 11.3824C1009.31 9.29963 1005.85 8.25826 1002.76 8.25826C999.662 8.25826 997.208 8.77894 995.392 9.82032C994.316 11.1394 993.778 13.1874 993.778 15.9645C993.778 18.7415 994.652 20.9284 996.401 22.5251Z" fill="url(#paint4_linear_45_484)"/>
<path d="M277.291 49.8117C274.732 49.7425 271.197 49.708 266.684 49.708C262.172 49.708 258.536 49.7425 255.775 49.8117C253.552 57.6935 252.239 62.5678 251.835 64.4345C251.431 66.2321 251.229 68.7557 251.229 72.0052V74.2867H234.258V72.0052C237.76 69.5162 242.104 60.3208 247.289 44.4189C252.475 28.517 255.876 18.0079 257.492 12.8917C259.108 7.70629 260.051 3.97281 260.32 1.69124L275.877 0.13562C275.877 2.76289 278.099 10.299 282.544 22.7439C290.828 45.9745 296.586 60.2516 299.818 65.5753C301.367 68.2717 303.118 70.415 305.071 72.0052V74.2867H283.655V72.0052C283.655 69.1013 281.534 61.7035 277.291 49.8117ZM266.078 14.7584C263.856 21.3266 261.061 30.4875 257.694 42.241H275.17C274.766 41.0657 274.16 39.0952 273.352 36.3297C271.601 30.1763 269.176 22.9859 266.078 14.7584Z" fill="url(#paint5_linear_45_484)"/>
<path d="M323.01 74.2867H309.17V72.0052C310.248 67.8569 310.787 60.0096 310.787 48.4635V27.4108C310.787 17.1091 310.349 9.33105 309.473 4.07652V1.79494L325.434 0.654159L360.992 51.8858V24.6107C360.992 21.0846 360.757 17.2128 360.285 12.9954C359.814 8.7088 359.275 5.70127 358.669 3.97281V1.69124H372.912V3.97281C372.508 5.70127 372.138 9.08906 371.801 14.1362C371.465 19.1142 371.296 23.5736 371.296 27.5145V52.197C371.296 56.207 371.498 60.5973 371.902 65.3679C372.306 70.1384 372.643 73.0423 372.912 74.0793L359.679 75.4275L321.09 19.9438V51.471C321.09 60.1825 321.73 67.0272 323.01 72.0052V74.2867Z" fill="url(#paint6_linear_45_484)"/>
<path d="M380.103 11.9583C380.103 8.84708 379.934 5.32101 379.598 1.38012C392.73 1.58753 402.562 1.69124 409.095 1.69124C415.627 1.69124 425.46 1.58753 438.592 1.38012C438.255 5.32101 438.087 8.84708 438.087 11.9583H436.168C428.558 10.1607 422.025 9.1582 416.57 8.95079C416.301 12.4077 416.166 17.5931 416.166 24.507V51.6784C416.166 61.0813 416.705 67.8569 417.782 72.0052V74.2867H400.407V72.0052C401.35 67.8569 401.822 61.185 401.822 51.9896V24.9218C401.822 17.8005 401.687 12.4769 401.418 8.95079C396.367 9.1582 389.902 10.1607 382.022 11.9583H380.103Z" fill="url(#paint7_linear_45_484)"/>
<path d="M474.89 75.5312C464.115 75.5312 455.494 72.0397 449.029 65.0567C442.631 58.0737 439.433 49.2586 439.433 38.6112C439.433 27.8948 443.036 18.8376 450.241 11.4398C457.447 3.97281 466.64 0.239327 477.819 0.239327C488.999 0.239327 497.619 3.69626 503.68 10.6101C509.741 17.524 512.771 26.028 512.771 36.1222C512.771 47.5301 509.135 56.9675 501.862 64.4345C494.656 71.8323 485.665 75.5312 474.89 75.5312ZM497.518 38.9224C497.518 33.1839 496.844 28.1713 495.497 23.8847C494.218 19.5981 491.827 16.0375 488.325 13.2028C484.823 10.299 480.311 8.84708 474.789 8.84708C472.297 8.84708 469.772 9.1582 467.212 9.78045C464.653 10.3336 462.801 10.9558 461.656 11.6472C459.636 13.7905 457.952 17.0746 456.606 21.4994C455.326 25.9243 454.686 30.5912 454.686 35.5C454.686 40.3397 455.09 44.5226 455.898 48.0487C456.774 51.5056 458.087 54.7205 459.838 57.6935C461.656 60.5973 464.148 62.9134 467.313 64.6419C470.479 66.3012 474.284 67.1309 478.728 67.1309C483.241 67.1309 487.18 66.163 490.548 64.2271C495.194 59.6639 497.518 51.229 497.518 38.9224Z" fill="url(#paint8_linear_45_484)"/>
<path d="M538.856 74.2867H525.017V72.0052C526.094 67.8569 526.633 60.0096 526.633 48.4635V27.4108C526.633 17.1091 526.195 9.33105 525.32 4.07652V1.79494L541.28 0.654159L576.839 51.8858V24.6107C576.839 21.0846 576.603 17.2128 576.132 12.9954C575.66 8.7088 575.121 5.70127 574.515 3.97281V1.69124H588.759V3.97281C588.355 5.70127 587.984 9.08906 587.648 14.1362C587.311 19.1142 587.143 23.5736 587.143 27.5145V52.197C587.143 56.207 587.345 60.5973 587.749 65.3679C588.153 70.1384 588.489 73.0423 588.759 74.0793L575.525 75.4275L536.937 19.9438V51.471C536.937 60.1825 537.577 67.0272 538.856 72.0052V74.2867Z" fill="url(#paint9_linear_45_484)"/>
<path d="M623.83 25.6478V50.4339C623.83 60.6664 624.369 67.8569 625.446 72.0052V74.2867H607.869V72.0052C608.947 67.8569 609.486 60.6664 609.486 50.4339V24.6107C609.486 15.0004 608.947 8.12113 607.869 3.97281V1.69124H625.446V3.97281C624.975 5.563 624.571 8.91622 624.234 14.0325C623.965 19.0796 623.83 22.9514 623.83 25.6478Z" fill="url(#paint10_linear_45_484)"/>
<path d="M663.191 25.6478V50.4339C663.191 60.6664 663.73 67.8569 664.808 72.0052V74.2867H647.231V72.0052C648.308 67.8569 648.847 60.6664 648.847 50.4339V24.6107C648.847 15.0004 648.308 8.12113 647.231 3.97281V1.69124H664.808V3.97281C664.336 5.563 663.932 8.91622 663.595 14.0325C663.326 19.0796 663.191 22.9514 663.191 25.6478Z" fill="url(#paint11_linear_45_484)"/>
<line x1="234.258" y1="105.293" x2="984.248" y2="105.293" stroke="#5A5A5A" stroke-width="3.9682"/>
<path d="M35.8502 158.864H0.133789V156.597C5.21538 155.086 9.61158 152.652 14.9745 146.113C21.7029 137.908 38.1678 105.223 49.43 82.8657L49.9354 81.8624L90.3793 1.15747L106.655 16.5323L35.8502 158.864Z" fill="url(#paint12_linear_45_484)"/>
<path d="M92.3531 92.6812H67.3773L60.1757 103.668H92.3531V92.6812Z" fill="url(#paint13_linear_45_484)"/>
<path d="M206.48 158.825H170.764C165.682 152.326 146.88 126.18 114.358 80.3871V111.218C114.358 116.81 114.648 125.047 115.229 135.928C115.955 146.659 116.754 153.762 117.625 157.238V158.825H88.6597V157.238C90.8375 148.472 91.9264 133.132 91.9264 111.218V47.9691C91.9264 25.9037 90.8375 10.4882 88.6597 1.72252V0.13562H117.625V1.72252C116.754 5.19857 115.955 12.3774 115.229 23.2589C114.648 34.1405 114.358 42.3772 114.358 47.9691V75.173L149.857 27.3395C159.149 14.7955 163.795 5.72753 163.795 0.13562H191.235V2.40261C185.137 3.46054 176.644 11.395 165.755 26.206L131.998 71.5458L160.31 109.631C171.635 124.745 180.854 136.004 187.969 143.409C195.228 150.664 201.399 155.047 206.48 156.558V158.825Z" fill="url(#paint14_linear_45_484)"/>
<path d="M218.385 -0.115967L218.385 158.864" stroke="url(#paint15_linear_45_484)" stroke-width="3.9682"/>
<path d="M234.258 158.273V157.034C236.402 157.034 237.652 156.64 238.01 155.853V126.16C237.652 125.373 236.402 124.98 234.258 124.98V123.74H247.241V124.98C245.097 124.98 243.846 125.373 243.489 126.16V156.266H257.068C258.06 155.833 258.954 154.594 259.748 152.547H260.939L259.509 158.273H234.258Z" fill="#5A5A5A"/>
<path d="M325.325 158.273V157.034C327.152 157.034 328.303 156.798 328.779 156.325L325.444 147.294H314.01L310.913 155.971C311.31 156.68 312.541 157.034 314.605 157.034V158.273H304.838V157.034C307.062 157.034 308.312 156.621 308.59 155.794L320.144 123.74H323.003L334.556 155.794C334.834 156.621 336.105 157.034 338.368 157.034V158.273H325.325ZM319.667 131.591L314.724 145.346H324.73L319.667 131.591Z" fill="#5A5A5A"/>
<path d="M409.24 123.74V124.98C407.414 124.98 406.263 125.216 405.786 125.688L414.898 150.422L423.653 126.042C423.256 125.334 422.025 124.98 419.96 124.98V123.74H429.728V124.98C427.504 124.98 426.253 125.393 425.976 126.22L414.422 158.273H411.563L404.119 137.672L396.734 158.273H393.875L382.321 126.22C382.004 125.393 380.733 124.98 378.51 124.98V123.74H391.552V124.98C389.726 124.98 388.575 125.216 388.098 125.688L397.21 150.363L402.928 134.366L400.009 126.22C399.731 125.393 398.461 124.98 396.198 124.98V123.74H409.24Z" fill="#5A5A5A"/>
<path d="M598.585 140.564C598.585 143.161 598.942 145.66 599.657 148.061C600.411 150.422 601.622 152.488 603.29 154.259C604.997 155.991 607.022 156.857 609.364 156.857C611.707 156.857 613.672 156.03 615.26 154.377C616.888 152.724 618.02 150.796 618.655 148.592C619.33 146.349 619.667 143.988 619.667 141.509C619.667 138.951 619.29 136.471 618.536 134.071C617.782 131.631 616.551 129.545 614.843 127.813C613.176 126.042 611.191 125.157 608.888 125.157C607.101 125.157 605.513 125.629 604.123 126.574C602.774 127.518 601.702 128.778 600.907 130.352C600.153 131.887 599.577 133.52 599.18 135.251C598.783 136.983 598.585 138.754 598.585 140.564ZM592.629 141.036C592.629 136.117 594.178 131.906 597.275 128.404C600.371 124.901 604.322 123.15 609.126 123.15C613.93 123.15 617.881 124.901 620.978 128.404C624.075 131.906 625.623 136.117 625.623 141.036C625.623 145.956 624.055 150.166 620.918 153.669C617.821 157.132 613.891 158.864 609.126 158.864C604.282 158.864 600.312 157.132 597.215 153.669C594.158 150.206 592.629 145.995 592.629 141.036Z" fill="#5A5A5A"/>
<path d="M674.327 158.273V157.034C676.471 157.034 677.722 156.64 678.079 155.853V126.16C677.722 125.373 676.471 124.98 674.327 124.98V123.74H698.328V129.466H697.077C697.077 127.341 696.68 126.101 695.886 125.747H683.558V139.324H691.896C692.69 138.97 693.087 137.731 693.087 135.605H694.338V145.05H693.087C693.087 142.925 692.69 141.686 691.896 141.331H683.558V155.853C683.915 156.64 685.166 157.034 687.31 157.034V158.273H674.327Z" fill="#5A5A5A"/>
<path d="M746.373 158.273V157.034C748.517 157.034 749.768 156.64 750.125 155.853V126.16C749.768 125.373 748.517 124.98 746.373 124.98V123.74H770.374V129.466H769.123C769.123 127.341 768.726 126.101 767.932 125.747H755.604V139.324H763.942C764.736 138.97 765.133 137.731 765.133 135.605H766.383V145.05H765.133C765.133 142.925 764.736 141.686 763.942 141.331H755.604V155.853C755.961 156.64 757.212 157.034 759.356 157.034V158.273H746.373Z" fill="#5A5A5A"/>
<path d="M818.419 158.273V157.034C820.563 157.034 821.814 156.64 822.171 155.853V126.16C821.814 125.373 820.563 124.98 818.419 124.98V123.74H831.402V124.98C829.258 124.98 828.007 125.373 827.65 126.16V155.853C828.007 156.64 829.258 157.034 831.402 157.034V158.273H818.419Z" fill="#5A5A5A"/>
<path d="M898.159 125.157C894.745 125.157 891.906 126.554 889.643 129.348C887.38 132.142 886.248 135.763 886.248 140.21C886.248 145.405 887.439 149.478 889.821 152.429C892.204 155.381 895.062 156.857 898.397 156.857C900.383 156.857 902.348 156.188 904.293 154.85C906.239 153.472 907.49 152.016 908.045 150.481L909.475 151.19C908.561 153.354 907.112 155.184 905.127 156.68C903.182 158.136 900.541 158.864 897.206 158.864C891.926 158.864 887.737 157.171 884.64 153.787C881.583 150.363 880.054 146.27 880.054 141.509C880.054 135.999 881.821 131.572 885.355 128.227C888.928 124.842 893.176 123.15 898.1 123.15C899.251 123.15 900.581 123.445 902.09 124.035C903.599 124.626 904.472 124.921 904.71 124.921C905.187 124.921 905.425 124.527 905.425 123.74H906.795L907.39 131.237H906.08C905.802 129.466 905.008 128.01 903.698 126.869C902.427 125.728 900.581 125.157 898.159 125.157Z" fill="#5A5A5A"/>
<path d="M957.567 158.273V157.034C959.711 157.034 960.962 156.64 961.319 155.853V126.16C960.962 125.373 959.711 124.98 957.567 124.98V123.74H981.568V129.466H980.317C980.317 127.341 979.92 126.101 979.126 125.747H966.798V139.324H975.136C975.93 138.97 976.327 137.731 976.327 135.605H977.578V145.05H976.327C976.327 142.925 975.93 141.686 975.136 141.331H966.798V156.266H980.377C981.37 155.833 982.263 154.594 983.057 152.547H984.248L982.819 158.273H957.567Z" fill="#5A5A5A"/>
<path d="M1001.84 87.8192L1006.19 87.7644C1010.96 87.7644 1013.35 89.5068 1013.35 92.9915C1013.35 94.9984 1012.64 96.5583 1011.24 97.6713C1009.85 98.7842 1008.07 99.3406 1005.89 99.3406C1005.13 99.3406 1004.33 99.2585 1003.5 99.0943V103.227C1003.5 104.723 1003.68 105.9 1004.03 106.757V106.921H1000.12V106.73C1000.47 105.799 1000.65 104.495 1000.65 102.816V92.3347C1000.65 90.419 1000.5 88.9595 1000.2 87.956V87.7644L1001.84 87.8192ZM1010.21 93.2652C1010.21 90.5285 1008.88 89.1601 1006.22 89.1601C1004.87 89.1601 1003.98 89.1875 1003.56 89.2423C1003.52 89.7349 1003.5 91.3404 1003.5 94.0588V97.8081C1004.22 98.0088 1004.97 98.1091 1005.75 98.1091C1007.21 98.1091 1008.32 97.6895 1009.08 96.8503C1009.83 95.9928 1010.21 94.7977 1010.21 93.2652Z" fill="#5A5A5A"/>
<path d="M1018.89 96.6587C1018.89 99.2859 1019.53 101.329 1020.8 102.789C1022.1 104.248 1023.7 104.978 1025.6 104.978C1026.99 104.978 1028.83 104.358 1031.12 103.117L1031.87 104.239C1031.02 104.86 1030.35 105.307 1029.87 105.58C1029.41 105.854 1028.88 106.137 1028.29 106.429C1027.09 106.994 1025.8 107.277 1024.44 107.277C1022.03 107.277 1019.98 106.392 1018.28 104.622C1016.6 102.853 1015.76 100.481 1015.76 97.5071C1015.76 94.5332 1016.74 92.1158 1018.7 90.2548C1020.66 88.3756 1023.09 87.436 1025.99 87.436C1027.93 87.436 1029.75 87.8739 1031.45 88.7496C1031.23 89.8991 1030.84 90.866 1030.29 91.6505C1028.38 90.1362 1026.32 89.3791 1024.1 89.3791C1023.44 89.3791 1022.79 89.4429 1022.16 89.5707C1021.22 90.2639 1020.43 91.2035 1019.81 92.3894C1019.2 93.5753 1018.89 94.9984 1018.89 96.6587Z" fill="#5A5A5A"/>
</g>
<defs>
<linearGradient id="paint0_linear_45_484" x1="872.37" y1="75.5313" x2="872.37" y2="0.135498" gradientUnits="userSpaceOnUse">
<stop stop-color="#343434"/>
<stop offset="1" stop-color="#858585"/>
</linearGradient>
<linearGradient id="paint1_linear_45_484" x1="872.37" y1="75.5313" x2="872.37" y2="0.135498" gradientUnits="userSpaceOnUse">
<stop stop-color="#343434"/>
<stop offset="1" stop-color="#858585"/>
</linearGradient>
<linearGradient id="paint2_linear_45_484" x1="872.37" y1="75.5313" x2="872.37" y2="0.135498" gradientUnits="userSpaceOnUse">
<stop stop-color="#343434"/>
<stop offset="1" stop-color="#858585"/>
</linearGradient>
<linearGradient id="paint3_linear_45_484" x1="872.37" y1="75.5313" x2="872.37" y2="0.135498" gradientUnits="userSpaceOnUse">
<stop stop-color="#343434"/>
<stop offset="1" stop-color="#858585"/>
</linearGradient>
<linearGradient id="paint4_linear_45_484" x1="872.37" y1="75.5313" x2="872.37" y2="0.135498" gradientUnits="userSpaceOnUse">
<stop stop-color="#343434"/>
<stop offset="1" stop-color="#858585"/>
</linearGradient>
<linearGradient id="paint5_linear_45_484" x1="449.533" y1="0.13562" x2="449.533" y2="75.5312" gradientUnits="userSpaceOnUse">
<stop stop-color="#FF9430"/>
<stop offset="1" stop-color="#FF5C00"/>
</linearGradient>
<linearGradient id="paint6_linear_45_484" x1="449.533" y1="0.13562" x2="449.533" y2="75.5312" gradientUnits="userSpaceOnUse">
<stop stop-color="#FF9430"/>
<stop offset="1" stop-color="#FF5C00"/>
</linearGradient>
<linearGradient id="paint7_linear_45_484" x1="449.533" y1="0.13562" x2="449.533" y2="75.5312" gradientUnits="userSpaceOnUse">
<stop stop-color="#FF9430"/>
<stop offset="1" stop-color="#FF5C00"/>
</linearGradient>
<linearGradient id="paint8_linear_45_484" x1="449.533" y1="0.13562" x2="449.533" y2="75.5312" gradientUnits="userSpaceOnUse">
<stop stop-color="#FF9430"/>
<stop offset="1" stop-color="#FF5C00"/>
</linearGradient>
<linearGradient id="paint9_linear_45_484" x1="449.533" y1="0.13562" x2="449.533" y2="75.5312" gradientUnits="userSpaceOnUse">
<stop stop-color="#FF9430"/>
<stop offset="1" stop-color="#FF5C00"/>
</linearGradient>
<linearGradient id="paint10_linear_45_484" x1="449.533" y1="0.13562" x2="449.533" y2="75.5312" gradientUnits="userSpaceOnUse">
<stop stop-color="#FF9430"/>
<stop offset="1" stop-color="#FF5C00"/>
</linearGradient>
<linearGradient id="paint11_linear_45_484" x1="449.533" y1="0.13562" x2="449.533" y2="75.5312" gradientUnits="userSpaceOnUse">
<stop stop-color="#FF9430"/>
<stop offset="1" stop-color="#FF5C00"/>
</linearGradient>
<linearGradient id="paint12_linear_45_484" x1="53.3943" y1="1.15747" x2="53.3943" y2="158.864" gradientUnits="userSpaceOnUse">
<stop stop-color="#FF9430"/>
<stop offset="1" stop-color="#FF5C00"/>
</linearGradient>
<linearGradient id="paint13_linear_45_484" x1="53.3943" y1="1.15747" x2="53.3943" y2="158.864" gradientUnits="userSpaceOnUse">
<stop stop-color="#FF9430"/>
<stop offset="1" stop-color="#FF5C00"/>
</linearGradient>
<linearGradient id="paint14_linear_45_484" x1="147.57" y1="158.825" x2="147.57" y2="0.13562" gradientUnits="userSpaceOnUse">
<stop stop-color="#343434"/>
<stop offset="1" stop-color="#858585"/>
</linearGradient>
<linearGradient id="paint15_linear_45_484" x1="218.385" y1="158.864" x2="218.385" y2="-0.115967" gradientUnits="userSpaceOnUse">
<stop stop-color="#343434"/>
<stop offset="1" stop-color="#858585"/>
</linearGradient>
<clipPath id="clip0_45_484">
<rect width="1031.73" height="158.728" fill="white" transform="translate(0.133789 0.13562)"/>
</clipPath>
</defs>
</svg>
